<svg xmlns="http://www.w3.org/2000/svg" width="688.68" height="658.89" viewBox="0 0 688.68 658.89">
<rect width="100%" height="100%" fill="white"/>
<polyline points="344.34,40 273.8,262.92 40,261.11 230.21,397.08 156.25,618.89 344.34,480 532.43,618.89 458.46,397.08 648.68,261.11 414.87,262.92 344.34,40 " fill="none" stroke="#cccccc" stroke-width="1"/>
<circle cx="335.73" cy="100.35" r="9.6" fill="#43A047" fill-opacity="0.85" stroke="#333333" stroke-width="0.5"/>
<circle cx="342.16" cy="120.13" r="9.6" fill="#43A047" fill-opacity="0.85" stroke="#333333" stroke-width="0.5"/>
<circle cx="328.24" cy="135.59" r="9.6" fill="#43A047" fill-opacity="0.85" stroke="#333333" stroke-width="0.5"/>
<circle cx="348.59" cy="139.91" r="9.6" fill="#43A047" fill-opacity="0.85" stroke="#333333" stroke-width="0.5"/>
<circle cx="334.67" cy="155.37" r="9.6" fill="#43A047" fill-opacity="0.85" stroke="#333333" stroke-width="0.5"/>
<circle cx="355.02" cy="159.7" r="9.6" fill="#43A047" fill-opacity="0.85" stroke="#333333" stroke-width="0.5"/>
<circle cx="320.75" cy="170.83" r="9.6" fill="#43A047" fill-opacity="0.85" stroke="#333333" stroke-width="0.5"/>
<circle cx="341.1" cy="175.15" r="9.6" fill="#43A047" fill-opacity="0.85" stroke="#333333" stroke-width="0.5"/>
<circle cx="361.44" cy="179.48" r="9.6" fill="#43A047" fill-opacity="0.85" stroke="#333333" stroke-width="0.5"/>
<circle cx="327.18" cy="190.61" r="9.6" fill="#43A047" fill-opacity="0.85" stroke="#333333" stroke-width="0.5"/>
<circle cx="347.53" cy="194.94" r="9.6" fill="#43A047" fill-opacity="0.85" stroke="#333333" stroke-width="0.5"/>
<circle cx="367.87" cy="199.26" r="9.6" fill="#43A047" fill-opacity="0.85" stroke="#333333" stroke-width="0.5"/>
<circle cx="313.26" cy="206.07" r="9.6" fill="#43A047" fill-opacity="0.85" stroke="#333333" stroke-width="0.5"/>
<circle cx="333.61" cy="210.39" r="9.6" fill="#43A047" fill-opacity="0.85" stroke="#333333" stroke-width="0.5"/>
<circle cx="353.95" cy="214.72" r="9.6" fill="#43A047" fill-opacity="0.85" stroke="#333333" stroke-width="0.5"/>
<circle cx="374.3" cy="219.04" r="9.6" fill="#43A047" fill-opacity="0.85" stroke="#333333" stroke-width="0.5"/>
<circle cx="299.35" cy="221.53" r="9.6" fill="#43A047" fill-opacity="0.85" stroke="#333333" stroke-width="0.5"/>
<circle cx="319.69" cy="225.85" r="9.6" fill="#43A047" fill-opacity="0.85" stroke="#333333" stroke-width="0.5"/>
<circle cx="340.04" cy="230.18" r="9.6" fill="#43A047" fill-opacity="0.85" stroke="#333333" stroke-width="0.5"/>
<circle cx="360.38" cy="234.5" r="9.6" fill="#43A047" fill-opacity="0.85" stroke="#333333" stroke-width="0.5"/>
<circle cx="380.73" cy="238.82" r="9.6" fill="#43A047" fill-opacity="0.85" stroke="#333333" stroke-width="0.5"/>
<circle cx="543.49" cy="273.42" r="9.6" fill="#43A047" fill-opacity="0.85" stroke="#333333" stroke-width="0.5"/>
<circle cx="563.84" cy="277.75" r="9.6" fill="#43A047" fill-opacity="0.85" stroke="#333333" stroke-width="0.5"/>
<circle cx="584.18" cy="282.07" r="9.6" fill="#43A047" fill-opacity="0.85" stroke="#333333" stroke-width="0.5"/>
<circle cx="305.77" cy="241.31" r="9.6" fill="#43A047" fill-opacity="0.85" stroke="#333333" stroke-width="0.5"/>
<circle cx="326.12" cy="245.63" r="9.6" fill="#43A047" fill-opacity="0.85" stroke="#333333" stroke-width="0.5"/>
<circle cx="346.46" cy="249.96" r="9.6" fill="#43A047" fill-opacity="0.85" stroke="#333333" stroke-width="0.5"/>
<circle cx="366.81" cy="254.28" r="9.6" fill="#43A047" fill-opacity="0.85" stroke="#333333" stroke-width="0.5"/>
<circle cx="387.15" cy="258.61" r="9.6" fill="#43A047" fill-opacity="0.85" stroke="#333333" stroke-width="0.5"/>
<circle cx="468.54" cy="275.9" r="9.6" fill="#43A047" fill-opacity="0.85" stroke="#333333" stroke-width="0.5"/>
<circle cx="488.88" cy="280.23" r="9.6" fill="#43A047" fill-opacity="0.85" stroke="#333333" stroke-width="0.5"/>
<circle cx="509.23" cy="284.55" r="9.6" fill="#43A047" fill-opacity="0.85" stroke="#333333" stroke-width="0.5"/>
<circle cx="529.57" cy="288.88" r="9.6" fill="#43A047" fill-opacity="0.85" stroke="#333333" stroke-width="0.5"/>
<circle cx="549.92" cy="293.2" r="9.6" fill="#43A047" fill-opacity="0.85" stroke="#333333" stroke-width="0.5"/>
<circle cx="570.26" cy="297.53" r="9.6" fill="#43A047" fill-opacity="0.85" stroke="#333333" stroke-width="0.5"/>
<circle cx="291.85" cy="256.77" r="9.6" fill="#43A047" fill-opacity="0.85" stroke="#333333" stroke-width="0.5"/>
<circle cx="312.2" cy="261.09" r="9.6" fill="#43A047" fill-opacity="0.85" stroke="#333333" stroke-width="0.5"/>
<circle cx="332.55" cy="265.41" r="9.6" fill="#43A047" fill-opacity="0.85" stroke="#333333" stroke-width="0.5"/>
<circle cx="352.89" cy="269.74" r="9.6" fill="#43A047" fill-opacity="0.85" stroke="#333333" stroke-width="0.5"/>
<circle cx="373.24" cy="274.06" r="9.6" fill="#43A047" fill-opacity="0.85" stroke="#333333" stroke-width="0.5"/>
<circle cx="393.58" cy="278.39" r="9.6" fill="#43A047" fill-opacity="0.85" stroke="#333333" stroke-width="0.5"/>
<circle cx="413.93" cy="282.71" r="9.6" fill="#43A047" fill-opacity="0.85" stroke="#333333" stroke-width="0.5"/>
<circle cx="434.27" cy="287.04" r="9.6" fill="#43A047" fill-opacity="0.85" stroke="#333333" stroke-width="0.5"/>
<circle cx="454.62" cy="291.36" r="9.6" fill="#43A047" fill-opacity="0.85" stroke="#333333" stroke-width="0.5"/>
<circle cx="474.96" cy="295.69" r="9.6" fill="#43A047" fill-opacity="0.85" stroke="#333333" stroke-width="0.5"/>
<circle cx="495.31" cy="300.01" r="9.6" fill="#43A047" fill-opacity="0.85" stroke="#333333" stroke-width="0.5"/>
<circle cx="515.66" cy="304.34" r="9.6" fill="#43A047" fill-opacity="0.85" stroke="#333333" stroke-width="0.5"/>
<circle cx="536" cy="308.66" r="9.6" fill="#43A047" fill-opacity="0.85" stroke="#333333" stroke-width="0.5"/>
<circle cx="556.35" cy="312.98" r="9.6" fill="#43A047" fill-opacity="0.85" stroke="#333333" stroke-width="0.5"/>
<circle cx="277.94" cy="272.22" r="9.6" fill="#43A047" fill-opacity="0.85" stroke="#333333" stroke-width="0.5"/>
<circle cx="298.28" cy="276.55" r="9.6" fill="#43A047" fill-opacity="0.85" stroke="#333333" stroke-width="0.5"/>
<circle cx="318.63" cy="280.87" r="9.6" fill="#43A047" fill-opacity="0.85" stroke="#333333" stroke-width="0.5"/>
<circle cx="338.97" cy="285.2" r="9.6" fill="#43A047" fill-opacity="0.85" stroke="#333333" stroke-width="0.5"/>
<circle cx="359.32" cy="289.52" r="9.6" fill="#43A047" fill-opacity="0.85" stroke="#333333" stroke-width="0.5"/>
<circle cx="379.66" cy="293.85" r="9.6" fill="#43A047" fill-opacity="0.85" stroke="#333333" stroke-width="0.5"/>
<circle cx="400.01" cy="298.17" r="9.6" fill="#43A047" fill-opacity="0.85" stroke="#333333" stroke-width="0.5"/>
<circle cx="420.36" cy="302.49" r="9.6" fill="#43A047" fill-opacity="0.85" stroke="#333333" stroke-width="0.5"/>
<circle cx="440.7" cy="306.82" r="9.6" fill="#43A047" fill-opacity="0.85" stroke="#333333" stroke-width="0.5"/>
<circle cx="461.05" cy="311.14" r="9.6" fill="#43A047" fill-opacity="0.85" stroke="#333333" stroke-width="0.5"/>
<circle cx="481.39" cy="315.47" r="9.6" fill="#43A047" fill-opacity="0.85" stroke="#333333" stroke-width="0.5"/>
<circle cx="501.74" cy="319.79" r="9.6" fill="#43A047" fill-opacity="0.85" stroke="#333333" stroke-width="0.5"/>
<circle cx="522.08" cy="324.12" r="9.6" fill="#43A047" fill-opacity="0.85" stroke="#333333" stroke-width="0.5"/>
<circle cx="202.98" cy="274.71" r="9.6" fill="#43A047" fill-opacity="0.85" stroke="#333333" stroke-width="0.5"/>
<circle cx="223.33" cy="279.03" r="9.6" fill="#43A047" fill-opacity="0.85" stroke="#333333" stroke-width="0.5"/>
<circle cx="243.67" cy="283.36" r="9.6" fill="#43A047" fill-opacity="0.85" stroke="#333333" stroke-width="0.5"/>
<circle cx="264.02" cy="287.68" r="9.6" fill="#43A047" fill-opacity="0.85" stroke="#333333" stroke-width="0.5"/>
<circle cx="284.36" cy="292" r="9.6" fill="#43A047" fill-opacity="0.85" stroke="#333333" stroke-width="0.5"/>
<circle cx="304.71" cy="296.33" r="9.6" fill="#43A047" fill-opacity="0.85" stroke="#333333" stroke-width="0.5"/>
<circle cx="325.06" cy="300.65" r="9.6" fill="#43A047" fill-opacity="0.85" stroke="#333333" stroke-width="0.5"/>
<circle cx="345.4" cy="304.98" r="9.6" fill="#43A047" fill-opacity="0.85" stroke="#333333" stroke-width="0.5"/>
<circle cx="365.75" cy="309.3" r="9.6" fill="#43A047" fill-opacity="0.85" stroke="#333333" stroke-width="0.5"/>
<circle cx="386.09" cy="313.63" r="9.6" fill="#43A047" fill-opacity="0.85" stroke="#333333" stroke-width="0.5"/>
<circle cx="406.44" cy="317.95" r="9.6" fill="#43A047" fill-opacity="0.85" stroke="#333333" stroke-width="0.5"/>
<circle cx="426.78" cy="322.28" r="9.6" fill="#43A047" fill-opacity="0.85" stroke="#333333" stroke-width="0.5"/>
<circle cx="447.13" cy="326.6" r="9.6" fill="#43A047" fill-opacity="0.85" stroke="#333333" stroke-width="0.5"/>
<circle cx="467.47" cy="330.93" r="9.6" fill="#43A047" fill-opacity="0.85" stroke="#333333" stroke-width="0.5"/>
<circle cx="487.82" cy="335.25" r="9.6" fill="#43A047" fill-opacity="0.85" stroke="#333333" stroke-width="0.5"/>
<circle cx="508.16" cy="339.58" r="9.6" fill="#43A047" fill-opacity="0.85" stroke="#333333" stroke-width="0.5"/>
<circle cx="107.68" cy="272.87" r="9.6" fill="#43A047" fill-opacity="0.85" stroke="#333333" stroke-width="0.5"/>
<circle cx="128.03" cy="277.19" r="9.6" fill="#43A047" fill-opacity="0.85" stroke="#333333" stroke-width="0.5"/>
<circle cx="148.37" cy="281.51" r="9.6" fill="#43A047" fill-opacity="0.85" stroke="#333333" stroke-width="0.5"/>
<circle cx="168.72" cy="285.84" r="9.6" fill="#43A047" fill-opacity="0.85" stroke="#333333" stroke-width="0.5"/>
<circle cx="189.06" cy="290.16" r="9.6" fill="#43A047" fill-opacity="0.85" stroke="#333333" stroke-width="0.5"/>
<circle cx="209.41" cy="294.49" r="9.6" fill="#43A047" fill-opacity="0.85" stroke="#333333" stroke-width="0.5"/>
<circle cx="229.76" cy="298.81" r="9.6" fill="#43A047" fill-opacity="0.85" stroke="#333333" stroke-width="0.5"/>
<circle cx="250.1" cy="303.14" r="9.6" fill="#43A047" fill-opacity="0.85" stroke="#333333" stroke-width="0.5"/>
<circle cx="270.45" cy="307.46" r="9.6" fill="#43A047" fill-opacity="0.85" stroke="#333333" stroke-width="0.5"/>
<circle cx="290.79" cy="311.79" r="9.6" fill="#43A047" fill-opacity="0.85" stroke="#333333" stroke-width="0.5"/>
<circle cx="311.14" cy="316.11" r="9.6" fill="#43A047" fill-opacity="0.85" stroke="#333333" stroke-width="0.5"/>
<circle cx="331.48" cy="320.44" r="9.6" fill="#43A047" fill-opacity="0.85" stroke="#333333" stroke-width="0.5"/>
<circle cx="351.83" cy="324.76" r="9.6" fill="#43A047" fill-opacity="0.85" stroke="#333333" stroke-width="0.5"/>
<circle cx="372.17" cy="329.09" r="9.6" fill="#43A047" fill-opacity="0.85" stroke="#333333" stroke-width="0.5"/>
<circle cx="392.52" cy="333.41" r="9.6" fill="#43A047" fill-opacity="0.85" stroke="#333333" stroke-width="0.5"/>
<circle cx="412.86" cy="337.73" r="9.6" fill="#43A047" fill-opacity="0.85" stroke="#333333" stroke-width="0.5"/>
<circle cx="433.21" cy="342.06" r="9.6" fill="#43A047" fill-opacity="0.85" stroke="#333333" stroke-width="0.5"/>
<circle cx="453.56" cy="346.38" r="9.6" fill="#43A047" fill-opacity="0.85" stroke="#333333" stroke-width="0.5"/>
<circle cx="473.9" cy="350.71" r="9.6" fill="#43A047" fill-opacity="0.85" stroke="#333333" stroke-width="0.5"/>
<circle cx="494.25" cy="355.03" r="9.6" fill="#43A047" fill-opacity="0.85" stroke="#333333" stroke-width="0.5"/>
<circle cx="114.11" cy="292.65" r="9.6" fill="#43A047" fill-opacity="0.85" stroke="#333333" stroke-width="0.5"/>
<circle cx="134.46" cy="296.97" r="9.6" fill="#43A047" fill-opacity="0.85" stroke="#333333" stroke-width="0.5"/>
<circle cx="154.8" cy="301.3" r="9.6" fill="#43A047" fill-opacity="0.85" stroke="#333333" stroke-width="0.5"/>
<circle cx="175.15" cy="305.62" r="9.6" fill="#43A047" fill-opacity="0.85" stroke="#333333" stroke-width="0.5"/>
<circle cx="195.49" cy="309.95" r="9.6" fill="#43A047" fill-opacity="0.85" stroke="#333333" stroke-width="0.5"/>
<circle cx="215.84" cy="314.27" r="9.6" fill="#43A047" fill-opacity="0.85" stroke="#333333" stroke-width="0.5"/>
<circle cx="236.18" cy="318.6" r="9.6" fill="#43A047" fill-opacity="0.85" stroke="#333333" stroke-width="0.5"/>
<circle cx="256.53" cy="322.92" r="9.6" fill="#43A047" fill-opacity="0.85" stroke="#333333" stroke-width="0.5"/>
<circle cx="276.87" cy="327.24" r="9.6" fill="#43A047" fill-opacity="0.85" stroke="#333333" stroke-width="0.5"/>
<circle cx="297.22" cy="331.57" r="9.6" fill="#43A047" fill-opacity="0.85" stroke="#333333" stroke-width="0.5"/>
<circle cx="317.57" cy="335.89" r="9.6" fill="#43A047" fill-opacity="0.85" stroke="#333333" stroke-width="0.5"/>
<circle cx="337.91" cy="340.22" r="9.6" fill="#43A047" fill-opacity="0.85" stroke="#333333" stroke-width="0.5"/>
<circle cx="358.26" cy="344.54" r="9.6" fill="#43A047" fill-opacity="0.85" stroke="#333333" stroke-width="0.5"/>
<circle cx="378.6" cy="348.87" r="9.6" fill="#43A047" fill-opacity="0.85" stroke="#333333" stroke-width="0.5"/>
<circle cx="398.95" cy="353.19" r="9.6" fill="#43A047" fill-opacity="0.85" stroke="#333333" stroke-width="0.5"/>
<circle cx="419.29" cy="357.52" r="9.6" fill="#43A047" fill-opacity="0.85" stroke="#333333" stroke-width="0.5"/>
<circle cx="439.64" cy="361.84" r="9.6" fill="#43A047" fill-opacity="0.85" stroke="#333333" stroke-width="0.5"/>
<circle cx="459.98" cy="366.17" r="9.6" fill="#43A047" fill-opacity="0.85" stroke="#333333" stroke-width="0.5"/>
<circle cx="140.88" cy="316.75" r="9.6" fill="#43A047" fill-opacity="0.85" stroke="#333333" stroke-width="0.5"/>
<circle cx="161.23" cy="321.08" r="9.6" fill="#43A047" fill-opacity="0.85" stroke="#333333" stroke-width="0.5"/>
<circle cx="181.57" cy="325.4" r="9.6" fill="#43A047" fill-opacity="0.85" stroke="#333333" stroke-width="0.5"/>
<circle cx="201.92" cy="329.73" r="9.6" fill="#43A047" fill-opacity="0.85" stroke="#333333" stroke-width="0.5"/>
<circle cx="222.27" cy="334.05" r="9.6" fill="#43A047" fill-opacity="0.85" stroke="#333333" stroke-width="0.5"/>
<circle cx="242.61" cy="338.38" r="9.6" fill="#43A047" fill-opacity="0.85" stroke="#333333" stroke-width="0.5"/>
<circle cx="262.96" cy="342.7" r="9.6" fill="#43A047" fill-opacity="0.85" stroke="#333333" stroke-width="0.5"/>
<circle cx="283.3" cy="347.03" r="9.6" fill="#43A047" fill-opacity="0.85" stroke="#333333" stroke-width="0.5"/>
<circle cx="303.65" cy="351.35" r="9.6" fill="#43A047" fill-opacity="0.85" stroke="#333333" stroke-width="0.5"/>
<circle cx="323.99" cy="355.68" r="9.6" fill="#43A047" fill-opacity="0.85" stroke="#333333" stroke-width="0.5"/>
<circle cx="344.34" cy="360" r="9.6" fill="#43A047" fill-opacity="0.85" stroke="#333333" stroke-width="0.5"/>
<circle cx="364.68" cy="364.32" r="9.6" fill="#43A047" fill-opacity="0.85" stroke="#333333" stroke-width="0.5"/>
<circle cx="385.03" cy="368.65" r="9.6" fill="#43A047" fill-opacity="0.85" stroke="#333333" stroke-width="0.5"/>
<circle cx="405.37" cy="372.97" r="9.6" fill="#43A047" fill-opacity="0.85" stroke="#333333" stroke-width="0.5"/>
<circle cx="425.72" cy="377.3" r="9.6" fill="#43A047" fill-opacity="0.85" stroke="#333333" stroke-width="0.5"/>
<circle cx="446.07" cy="381.62" r="9.6" fill="#43A047" fill-opacity="0.85" stroke="#333333" stroke-width="0.5"/>
<circle cx="188" cy="345.19" r="9.6" fill="#43A047" fill-opacity="0.85" stroke="#333333" stroke-width="0.5"/>
<circle cx="208.35" cy="349.51" r="9.6" fill="#43A047" fill-opacity="0.85" stroke="#333333" stroke-width="0.5"/>
<circle cx="228.69" cy="353.83" r="9.6" fill="#43A047" fill-opacity="0.85" stroke="#333333" stroke-width="0.5"/>
<circle cx="249.04" cy="358.16" r="9.6" fill="#43A047" fill-opacity="0.85" stroke="#333333" stroke-width="0.5"/>
<circle cx="269.38" cy="362.48" r="9.6" fill="#43A047" fill-opacity="0.85" stroke="#333333" stroke-width="0.5"/>
<circle cx="289.73" cy="366.81" r="9.6" fill="#43A047" fill-opacity="0.85" stroke="#333333" stroke-width="0.5"/>
<circle cx="310.07" cy="371.13" r="9.6" fill="#43A047" fill-opacity="0.85" stroke="#333333" stroke-width="0.5"/>
<circle cx="330.42" cy="375.46" r="9.6" fill="#43A047" fill-opacity="0.85" stroke="#333333" stroke-width="0.5"/>
<circle cx="350.77" cy="379.78" r="9.6" fill="#43A047" fill-opacity="0.85" stroke="#333333" stroke-width="0.5"/>
<circle cx="371.11" cy="384.11" r="9.6" fill="#43A047" fill-opacity="0.85" stroke="#333333" stroke-width="0.5"/>
<circle cx="391.46" cy="388.43" r="9.6" fill="#43A047" fill-opacity="0.85" stroke="#333333" stroke-width="0.5"/>
<circle cx="411.8" cy="392.76" r="9.6" fill="#43A047" fill-opacity="0.85" stroke="#333333" stroke-width="0.5"/>
<circle cx="432.15" cy="397.08" r="9.6" fill="#43A047" fill-opacity="0.85" stroke="#333333" stroke-width="0.5"/>
<circle cx="214.77" cy="369.29" r="9.6" fill="#43A047" fill-opacity="0.85" stroke="#333333" stroke-width="0.5"/>
<circle cx="235.12" cy="373.62" r="9.6" fill="#43A047" fill-opacity="0.85" stroke="#333333" stroke-width="0.5"/>
<circle cx="255.47" cy="377.94" r="9.6" fill="#43A047" fill-opacity="0.85" stroke="#333333" stroke-width="0.5"/>
<circle cx="275.81" cy="382.27" r="9.6" fill="#43A047" fill-opacity="0.85" stroke="#333333" stroke-width="0.5"/>
<circle cx="296.16" cy="386.59" r="9.6" fill="#43A047" fill-opacity="0.85" stroke="#333333" stroke-width="0.5"/>
<circle cx="316.5" cy="390.91" r="9.6" fill="#43A047" fill-opacity="0.85" stroke="#333333" stroke-width="0.5"/>
<circle cx="336.85" cy="395.24" r="9.6" fill="#43A047" fill-opacity="0.85" stroke="#333333" stroke-width="0.5"/>
<circle cx="357.19" cy="399.56" r="9.6" fill="#43A047" fill-opacity="0.85" stroke="#333333" stroke-width="0.5"/>
<circle cx="377.54" cy="403.89" r="9.6" fill="#43A047" fill-opacity="0.85" stroke="#333333" stroke-width="0.5"/>
<circle cx="397.88" cy="408.21" r="9.6" fill="#43A047" fill-opacity="0.85" stroke="#333333" stroke-width="0.5"/>
<circle cx="418.23" cy="412.54" r="9.6" fill="#43A047" fill-opacity="0.85" stroke="#333333" stroke-width="0.5"/>
<circle cx="438.58" cy="416.86" r="9.6" fill="#43A047" fill-opacity="0.85" stroke="#333333" stroke-width="0.5"/>
<circle cx="241.55" cy="393.4" r="9.6" fill="#43A047" fill-opacity="0.85" stroke="#333333" stroke-width="0.5"/>
<circle cx="261.89" cy="397.72" r="9.6" fill="#43A047" fill-opacity="0.85" stroke="#333333" stroke-width="0.5"/>
<circle cx="282.24" cy="402.05" r="9.6" fill="#43A047" fill-opacity="0.85" stroke="#333333" stroke-width="0.5"/>
<circle cx="302.58" cy="406.37" r="9.6" fill="#43A047" fill-opacity="0.85" stroke="#333333" stroke-width="0.5"/>
<circle cx="322.93" cy="410.7" r="9.6" fill="#43A047" fill-opacity="0.85" stroke="#333333" stroke-width="0.5"/>
<circle cx="343.28" cy="415.02" r="9.6" fill="#43A047" fill-opacity="0.85" stroke="#333333" stroke-width="0.5"/>
<circle cx="363.62" cy="419.35" r="9.6" fill="#43A047" fill-opacity="0.85" stroke="#333333" stroke-width="0.5"/>
<circle cx="383.97" cy="423.67" r="9.6" fill="#43A047" fill-opacity="0.85" stroke="#333333" stroke-width="0.5"/>
<circle cx="404.31" cy="428" r="9.6" fill="#43A047" fill-opacity="0.85" stroke="#333333" stroke-width="0.5"/>
<circle cx="424.66" cy="432.32" r="9.6" fill="#43A047" fill-opacity="0.85" stroke="#333333" stroke-width="0.5"/>
<circle cx="445" cy="436.64" r="9.6" fill="#43A047" fill-opacity="0.85" stroke="#333333" stroke-width="0.5"/>
<circle cx="247.98" cy="413.18" r="9.6" fill="#43A047" fill-opacity="0.85" stroke="#333333" stroke-width="0.5"/>
<circle cx="268.32" cy="417.51" r="9.6" fill="#43A047" fill-opacity="0.85" stroke="#333333" stroke-width="0.5"/>
<circle cx="288.67" cy="421.83" r="9.6" fill="#43A047" fill-opacity="0.85" stroke="#333333" stroke-width="0.5"/>
<circle cx="309.01" cy="426.15" r="9.6" fill="#43A047" fill-opacity="0.85" stroke="#333333" stroke-width="0.5"/>
<circle cx="329.36" cy="430.48" r="9.6" fill="#43A047" fill-opacity="0.85" stroke="#333333" stroke-width="0.5"/>
<circle cx="349.7" cy="434.8" r="9.6" fill="#43A047" fill-opacity="0.85" stroke="#333333" stroke-width="0.5"/>
<circle cx="370.05" cy="439.13" r="9.6" fill="#43A047" fill-opacity="0.85" stroke="#333333" stroke-width="0.5"/>
<circle cx="390.39" cy="443.45" r="9.6" fill="#43A047" fill-opacity="0.85" stroke="#333333" stroke-width="0.5"/>
<circle cx="410.74" cy="447.78" r="9.6" fill="#43A047" fill-opacity="0.85" stroke="#333333" stroke-width="0.5"/>
<circle cx="431.08" cy="452.1" r="9.6" fill="#43A047" fill-opacity="0.85" stroke="#333333" stroke-width="0.5"/>
<circle cx="451.43" cy="456.43" r="9.6" fill="#43A047" fill-opacity="0.85" stroke="#333333" stroke-width="0.5"/>
<circle cx="234.06" cy="428.64" r="9.6" fill="#43A047" fill-opacity="0.85" stroke="#333333" stroke-width="0.5"/>
<circle cx="254.4" cy="432.96" r="9.6" fill="#43A047" fill-opacity="0.85" stroke="#333333" stroke-width="0.5"/>
<circle cx="274.75" cy="437.29" r="9.6" fill="#43A047" fill-opacity="0.85" stroke="#333333" stroke-width="0.5"/>
<circle cx="295.09" cy="441.61" r="9.6" fill="#43A047" fill-opacity="0.85" stroke="#333333" stroke-width="0.5"/>
<circle cx="315.44" cy="445.94" r="9.6" fill="#43A047" fill-opacity="0.85" stroke="#333333" stroke-width="0.5"/>
<circle cx="335.78" cy="450.26" r="9.6" fill="#43A047" fill-opacity="0.85" stroke="#333333" stroke-width="0.5"/>
<circle cx="356.13" cy="454.59" r="9.6" fill="#43A047" fill-opacity="0.85" stroke="#333333" stroke-width="0.5"/>
<circle cx="376.48" cy="458.91" r="9.6" fill="#43A047" fill-opacity="0.85" stroke="#333333" stroke-width="0.5"/>
<circle cx="396.82" cy="463.23" r="9.6" fill="#43A047" fill-opacity="0.85" stroke="#333333" stroke-width="0.5"/>
<circle cx="417.17" cy="467.56" r="9.6" fill="#43A047" fill-opacity="0.85" stroke="#333333" stroke-width="0.5"/>
<circle cx="437.51" cy="471.88" r="9.6" fill="#43A047" fill-opacity="0.85" stroke="#333333" stroke-width="0.5"/>
<circle cx="457.86" cy="476.21" r="9.6" fill="#43A047" fill-opacity="0.85" stroke="#333333" stroke-width="0.5"/>
<circle cx="240.49" cy="448.42" r="9.6" fill="#43A047" fill-opacity="0.85" stroke="#333333" stroke-width="0.5"/>
<circle cx="260.83" cy="452.74" r="9.6" fill="#43A047" fill-opacity="0.85" stroke="#333333" stroke-width="0.5"/>
<circle cx="281.18" cy="457.07" r="9.6" fill="#43A047" fill-opacity="0.85" stroke="#333333" stroke-width="0.5"/>
<circle cx="301.52" cy="461.39" r="9.6" fill="#43A047" fill-opacity="0.85" stroke="#333333" stroke-width="0.5"/>
<circle cx="321.87" cy="465.72" r="9.6" fill="#43A047" fill-opacity="0.85" stroke="#333333" stroke-width="0.5"/>
<circle cx="342.21" cy="470.04" r="9.6" fill="#43A047" fill-opacity="0.85" stroke="#333333" stroke-width="0.5"/>
<circle cx="362.56" cy="474.37" r="9.6" fill="#43A047" fill-opacity="0.85" stroke="#333333" stroke-width="0.5"/>
<circle cx="382.9" cy="478.69" r="9.6" fill="#43A047" fill-opacity="0.85" stroke="#333333" stroke-width="0.5"/>
<circle cx="403.25" cy="483.02" r="9.6" fill="#43A047" fill-opacity="0.85" stroke="#333333" stroke-width="0.5"/>
<circle cx="423.59" cy="487.34" r="9.6" fill="#43A047" fill-opacity="0.85" stroke="#333333" stroke-width="0.5"/>
<circle cx="443.94" cy="491.67" r="9.6" fill="#43A047" fill-opacity="0.85" stroke="#333333" stroke-width="0.5"/>
<circle cx="464.29" cy="495.99" r="9.6" fill="#43A047" fill-opacity="0.85" stroke="#333333" stroke-width="0.5"/>
<circle cx="226.57" cy="463.88" r="9.6" fill="#43A047" fill-opacity="0.85" stroke="#333333" stroke-width="0.5"/>
<circle cx="246.91" cy="468.2" r="9.6" fill="#43A047" fill-opacity="0.85" stroke="#333333" stroke-width="0.5"/>
<circle cx="267.26" cy="472.53" r="9.6" fill="#43A047" fill-opacity="0.85" stroke="#333333" stroke-width="0.5"/>
<circle cx="287.6" cy="476.85" r="9.6" fill="#43A047" fill-opacity="0.85" stroke="#333333" stroke-width="0.5"/>
<circle cx="307.95" cy="481.18" r="9.6" fill="#43A047" fill-opacity="0.85" stroke="#333333" stroke-width="0.5"/>
<circle cx="389.33" cy="498.47" r="9.6" fill="#43A047" fill-opacity="0.85" stroke="#333333" stroke-width="0.5"/>
<circle cx="409.68" cy="502.8" r="9.6" fill="#43A047" fill-opacity="0.85" stroke="#333333" stroke-width="0.5"/>
<circle cx="430.02" cy="507.12" r="9.6" fill="#43A047" fill-opacity="0.85" stroke="#333333" stroke-width="0.5"/>
<circle cx="450.37" cy="511.45" r="9.6" fill="#43A047" fill-opacity="0.85" stroke="#333333" stroke-width="0.5"/>
<circle cx="470.71" cy="515.77" r="9.6" fill="#43A047" fill-opacity="0.85" stroke="#333333" stroke-width="0.5"/>
<circle cx="232.99" cy="483.66" r="9.6" fill="#43A047" fill-opacity="0.85" stroke="#333333" stroke-width="0.5"/>
<circle cx="253.34" cy="487.98" r="9.6" fill="#43A047" fill-opacity="0.85" stroke="#333333" stroke-width="0.5"/>
<circle cx="273.69" cy="492.31" r="9.6" fill="#43A047" fill-opacity="0.85" stroke="#333333" stroke-width="0.5"/>
<circle cx="294.03" cy="496.63" r="9.6" fill="#43A047" fill-opacity="0.85" stroke="#333333" stroke-width="0.5"/>
<circle cx="436.45" cy="526.9" r="9.6" fill="#43A047" fill-opacity="0.85" stroke="#333333" stroke-width="0.5"/>
<circle cx="456.79" cy="531.23" r="9.6" fill="#43A047" fill-opacity="0.85" stroke="#333333" stroke-width="0.5"/>
<circle cx="477.14" cy="535.55" r="9.6" fill="#43A047" fill-opacity="0.85" stroke="#333333" stroke-width="0.5"/>
<circle cx="219.08" cy="499.12" r="9.6" fill="#43A047" fill-opacity="0.85" stroke="#333333" stroke-width="0.5"/>
<circle cx="239.42" cy="503.44" r="9.6" fill="#43A047" fill-opacity="0.85" stroke="#333333" stroke-width="0.5"/>
<circle cx="259.77" cy="507.77" r="9.6" fill="#43A047" fill-opacity="0.85" stroke="#333333" stroke-width="0.5"/>
<circle cx="280.11" cy="512.09" r="9.6" fill="#43A047" fill-opacity="0.85" stroke="#333333" stroke-width="0.5"/>
<circle cx="463.22" cy="551.01" r="9.6" fill="#43A047" fill-opacity="0.85" stroke="#333333" stroke-width="0.5"/>
<circle cx="483.57" cy="555.34" r="9.6" fill="#43A047" fill-opacity="0.85" stroke="#333333" stroke-width="0.5"/>
<circle cx="205.16" cy="514.57" r="9.6" fill="#43A047" fill-opacity="0.85" stroke="#333333" stroke-width="0.5"/>
<circle cx="225.5" cy="518.9" r="9.6" fill="#43A047" fill-opacity="0.85" stroke="#333333" stroke-width="0.5"/>
<circle cx="245.85" cy="523.22" r="9.6" fill="#43A047" fill-opacity="0.85" stroke="#333333" stroke-width="0.5"/>
<circle cx="490" cy="575.12" r="9.6" fill="#43A047" fill-opacity="0.85" stroke="#333333" stroke-width="0.5"/>
<circle cx="211.59" cy="534.36" r="9.6" fill="#43A047" fill-opacity="0.85" stroke="#333333" stroke-width="0.5"/>
<circle cx="231.93" cy="538.68" r="9.6" fill="#43A047" fill-opacity="0.85" stroke="#333333" stroke-width="0.5"/>
<circle cx="197.67" cy="549.81" r="9.6" fill="#43A047" fill-opacity="0.85" stroke="#333333" stroke-width="0.5"/>
<circle cx="218.01" cy="554.14" r="9.6" fill="#43A047" fill-opacity="0.85" stroke="#333333" stroke-width="0.5"/>
<circle cx="204.1" cy="569.6" r="9.6" fill="#43A047" fill-opacity="0.85" stroke="#333333" stroke-width="0.5"/>
</svg>
