<svg xmlns="http://www.w3.org/2000/svg" width="400" height="400" viewBox="0 0 400 400">
<rect width="100%" height="100%" fill="white"/>
<polyline points="40,40 360,40 360,360 40,360 40,40 " fill="none" stroke="#cccccc" stroke-width="1"/>
<circle cx="52" cy="49.6" r="9.6" fill="#E53935" fill-opacity="0.85" stroke="#333333" stroke-width="0.5"/>
<circle cx="49.6" cy="73.26" r="9.6" fill="#43A047" fill-opacity="0.85" stroke="#333333" stroke-width="0.5"/>
<circle cx="49.6" cy="94.51" r="9.6" fill="#43A047" fill-opacity="0.85" stroke="#333333" stroke-width="0.5"/>
<circle cx="49.6" cy="115.77" r="9.6" fill="#43A047" fill-opacity="0.85" stroke="#333333" stroke-width="0.5"/>
<circle cx="49.6" cy="137.03" r="9.6" fill="#43A047" fill-opacity="0.85" stroke="#333333" stroke-width="0.5"/>
<circle cx="49.6" cy="158.29" r="9.6" fill="#43A047" fill-opacity="0.85" stroke="#333333" stroke-width="0.5"/>
<circle cx="49.6" cy="179.54" r="9.6" fill="#43A047" fill-opacity="0.85" stroke="#333333" stroke-width="0.5"/>
<circle cx="49.6" cy="200.8" r="9.6" fill="#43A047" fill-opacity="0.85" stroke="#333333" stroke-width="0.5"/>
<circle cx="49.6" cy="222.06" r="9.6" fill="#43A047" fill-opacity="0.85" stroke="#333333" stroke-width="0.5"/>
<circle cx="49.6" cy="243.31" r="9.6" fill="#43A047" fill-opacity="0.85" stroke="#333333" stroke-width="0.5"/>
<circle cx="49.6" cy="264.57" r="9.6" fill="#43A047" fill-opacity="0.85" stroke="#333333" stroke-width="0.5"/>
<circle cx="49.6" cy="285.83" r="9.6" fill="#43A047" fill-opacity="0.85" stroke="#333333" stroke-width="0.5"/>
<circle cx="49.6" cy="307.09" r="9.6" fill="#43A047" fill-opacity="0.85" stroke="#333333" stroke-width="0.5"/>
<circle cx="49.6" cy="328.34" r="9.6" fill="#43A047" fill-opacity="0.85" stroke="#333333" stroke-width="0.5"/>
<circle cx="49.6" cy="349.6" r="9.6" fill="#E53935" fill-opacity="0.85" stroke="#333333" stroke-width="0.5"/>
<circle cx="70.91" cy="350.4" r="9.6" fill="#43A047" fill-opacity="0.85" stroke="#333333" stroke-width="0.5"/>
<circle cx="92.35" cy="350.4" r="9.6" fill="#43A047" fill-opacity="0.85" stroke="#333333" stroke-width="0.5"/>
<circle cx="113.78" cy="350.4" r="9.6" fill="#43A047" fill-opacity="0.85" stroke="#333333" stroke-width="0.5"/>
<circle cx="135.22" cy="350.4" r="9.6" fill="#43A047" fill-opacity="0.85" stroke="#333333" stroke-width="0.5"/>
<circle cx="156.66" cy="350.4" r="9.6" fill="#43A047" fill-opacity="0.85" stroke="#333333" stroke-width="0.5"/>
<circle cx="178.1" cy="350.4" r="9.6" fill="#43A047" fill-opacity="0.85" stroke="#333333" stroke-width="0.5"/>
<circle cx="199.54" cy="350.4" r="9.6" fill="#43A047" fill-opacity="0.85" stroke="#333333" stroke-width="0.5"/>
<circle cx="220.97" cy="350.4" r="9.6" fill="#43A047" fill-opacity="0.85" stroke="#333333" stroke-width="0.5"/>
<circle cx="242.41" cy="350.4" r="9.6" fill="#43A047" fill-opacity="0.85" stroke="#333333" stroke-width="0.5"/>
<circle cx="263.85" cy="350.4" r="9.6" fill="#43A047" fill-opacity="0.85" stroke="#333333" stroke-width="0.5"/>
<circle cx="285.29" cy="350.4" r="9.6" fill="#43A047" fill-opacity="0.85" stroke="#333333" stroke-width="0.5"/>
<circle cx="306.72" cy="350.4" r="9.6" fill="#43A047" fill-opacity="0.85" stroke="#333333" stroke-width="0.5"/>
<circle cx="328.16" cy="350.4" r="9.6" fill="#43A047" fill-opacity="0.85" stroke="#333333" stroke-width="0.5"/>
<circle cx="349.6" cy="350.4" r="9.6" fill="#E53935" fill-opacity="0.85" stroke="#333333" stroke-width="0.5"/>
<circle cx="350.4" cy="328.16" r="9.6" fill="#43A047" fill-opacity="0.85" stroke="#333333" stroke-width="0.5"/>
<circle cx="350.4" cy="306.72" r="9.6" fill="#43A047" fill-opacity="0.85" stroke="#333333" stroke-width="0.5"/>
<circle cx="350.4" cy="285.29" r="9.6" fill="#43A047" fill-opacity="0.85" stroke="#333333" stroke-width="0.5"/>
<circle cx="350.4" cy="263.85" r="9.6" fill="#43A047" fill-opacity="0.85" stroke="#333333" stroke-width="0.5"/>
<circle cx="350.4" cy="242.41" r="9.6" fill="#43A047" fill-opacity="0.85" stroke="#333333" stroke-width="0.5"/>
<circle cx="350.4" cy="220.97" r="9.6" fill="#43A047" fill-opacity="0.85" stroke="#333333" stroke-width="0.5"/>
<circle cx="350.4" cy="199.54" r="9.6" fill="#43A047" fill-opacity="0.85" stroke="#333333" stroke-width="0.5"/>
<circle cx="350.4" cy="178.1" r="9.6" fill="#43A047" fill-opacity="0.85" stroke="#333333" stroke-width="0.5"/>
<circle cx="350.4" cy="156.66" r="9.6" fill="#43A047" fill-opacity="0.85" stroke="#333333" stroke-width="0.5"/>
<circle cx="350.4" cy="135.22" r="9.6" fill="#43A047" fill-opacity="0.85" stroke="#333333" stroke-width="0.5"/>
<circle cx="350.4" cy="113.78" r="9.6" fill="#43A047" fill-opacity="0.85" stroke="#333333" stroke-width="0.5"/>
<circle cx="350.4" cy="92.35" r="9.6" fill="#43A047" fill-opacity="0.85" stroke="#333333" stroke-width="0.5"/>
<circle cx="350.4" cy="70.91" r="9.6" fill="#43A047" fill-opacity="0.85" stroke="#333333" stroke-width="0.5"/>
<circle cx="349.6" cy="49.6" r="9.6" fill="#E53935" fill-opacity="0.85" stroke="#333333" stroke-width="0.5"/>
<circle cx="328.34" cy="49.6" r="9.6" fill="#43A047" fill-opacity="0.85" stroke="#333333" stroke-width="0.5"/>
<circle cx="307.09" cy="49.6" r="9.6" fill="#43A047" fill-opacity="0.85" stroke="#333333" stroke-width="0.5"/>
<circle cx="285.83" cy="49.6" r="9.6" fill="#43A047" fill-opacity="0.85" stroke="#333333" stroke-width="0.5"/>
<circle cx="264.57" cy="49.6" r="9.6" fill="#43A047" fill-opacity="0.85" stroke="#333333" stroke-width="0.5"/>
<circle cx="243.31" cy="49.6" r="9.6" fill="#43A047" fill-opacity="0.85" stroke="#333333" stroke-width="0.5"/>
<circle cx="222.06" cy="49.6" r="9.6" fill="#43A047" fill-opacity="0.85" stroke="#333333" stroke-width="0.5"/>
<circle cx="200.8" cy="49.6" r="9.6" fill="#43A047" fill-opacity="0.85" stroke="#333333" stroke-width="0.5"/>
<circle cx="179.54" cy="49.6" r="9.6" fill="#43A047" fill-opacity="0.85" stroke="#333333" stroke-width="0.5"/>
<circle cx="158.29" cy="49.6" r="9.6" fill="#43A047" fill-opacity="0.85" stroke="#333333" stroke-width="0.5"/>
<circle cx="137.03" cy="49.6" r="9.6" fill="#43A047" fill-opacity="0.85" stroke="#333333" stroke-width="0.5"/>
<circle cx="115.77" cy="49.6" r="9.6" fill="#43A047" fill-opacity="0.85" stroke="#333333" stroke-width="0.5"/>
<circle cx="94.51" cy="49.6" r="9.6" fill="#43A047" fill-opacity="0.85" stroke="#333333" stroke-width="0.5"/>
<circle cx="73.26" cy="49.6" r="9.6" fill="#43A047" fill-opacity="0.85" stroke="#333333" stroke-width="0.5"/>
<circle cx="71.2" cy="70.4" r="9.6" fill="#E53935" fill-opacity="0.85" stroke="#333333" stroke-width="0.5"/>
<circle cx="70.4" cy="92.6" r="9.6" fill="#43A047" fill-opacity="0.85" stroke="#333333" stroke-width="0.5"/>
<circle cx="70.4" cy="114" r="9.6" fill="#43A047" fill-opacity="0.85" stroke="#333333" stroke-width="0.5"/>
<circle cx="70.4" cy="135.4" r="9.6" fill="#43A047" fill-opacity="0.85" stroke="#333333" stroke-width="0.5"/>
<circle cx="70.4" cy="156.8" r="9.6" fill="#43A047" fill-opacity="0.85" stroke="#333333" stroke-width="0.5"/>
<circle cx="70.4" cy="178.2" r="9.6" fill="#43A047" fill-opacity="0.85" stroke="#333333" stroke-width="0.5"/>
<circle cx="70.4" cy="199.6" r="9.6" fill="#43A047" fill-opacity="0.85" stroke="#333333" stroke-width="0.5"/>
<circle cx="70.4" cy="221" r="9.6" fill="#43A047" fill-opacity="0.85" stroke="#333333" stroke-width="0.5"/>
<circle cx="70.4" cy="242.4" r="9.6" fill="#43A047" fill-opacity="0.85" stroke="#333333" stroke-width="0.5"/>
<circle cx="70.4" cy="263.8" r="9.6" fill="#43A047" fill-opacity="0.85" stroke="#333333" stroke-width="0.5"/>
<circle cx="70.4" cy="285.2" r="9.6" fill="#43A047" fill-opacity="0.85" stroke="#333333" stroke-width="0.5"/>
<circle cx="70.4" cy="306.6" r="9.6" fill="#43A047" fill-opacity="0.85" stroke="#333333" stroke-width="0.5"/>
<circle cx="70.4" cy="328" r="9.6" fill="#E53935" fill-opacity="0.85" stroke="#333333" stroke-width="0.5"/>
<circle cx="92.57" cy="329.6" r="9.6" fill="#43A047" fill-opacity="0.85" stroke="#333333" stroke-width="0.5"/>
<circle cx="113.97" cy="329.6" r="9.6" fill="#43A047" fill-opacity="0.85" stroke="#333333" stroke-width="0.5"/>
<circle cx="135.38" cy="329.6" r="9.6" fill="#43A047" fill-opacity="0.85" stroke="#333333" stroke-width="0.5"/>
<circle cx="156.78" cy="329.6" r="9.6" fill="#43A047" fill-opacity="0.85" stroke="#333333" stroke-width="0.5"/>
<circle cx="178.18" cy="329.6" r="9.6" fill="#43A047" fill-opacity="0.85" stroke="#333333" stroke-width="0.5"/>
<circle cx="199.58" cy="329.6" r="9.6" fill="#43A047" fill-opacity="0.85" stroke="#333333" stroke-width="0.5"/>
<circle cx="220.99" cy="329.6" r="9.6" fill="#43A047" fill-opacity="0.85" stroke="#333333" stroke-width="0.5"/>
<circle cx="242.39" cy="329.6" r="9.6" fill="#43A047" fill-opacity="0.85" stroke="#333333" stroke-width="0.5"/>
<circle cx="263.79" cy="329.6" r="9.6" fill="#43A047" fill-opacity="0.85" stroke="#333333" stroke-width="0.5"/>
<circle cx="285.19" cy="329.6" r="9.6" fill="#43A047" fill-opacity="0.85" stroke="#333333" stroke-width="0.5"/>
<circle cx="306.6" cy="329.6" r="9.6" fill="#43A047" fill-opacity="0.85" stroke="#333333" stroke-width="0.5"/>
<circle cx="328" cy="329.6" r="9.6" fill="#E53935" fill-opacity="0.85" stroke="#333333" stroke-width="0.5"/>
<circle cx="329.6" cy="306.6" r="9.6" fill="#43A047" fill-opacity="0.85" stroke="#333333" stroke-width="0.5"/>
<circle cx="329.6" cy="285.19" r="9.6" fill="#43A047" fill-opacity="0.85" stroke="#333333" stroke-width="0.5"/>
<circle cx="329.6" cy="263.79" r="9.6" fill="#43A047" fill-opacity="0.85" stroke="#333333" stroke-width="0.5"/>
<circle cx="329.6" cy="242.39" r="9.6" fill="#43A047" fill-opacity="0.85" stroke="#333333" stroke-width="0.5"/>
<circle cx="329.6" cy="220.99" r="9.6" fill="#43A047" fill-opacity="0.85" stroke="#333333" stroke-width="0.5"/>
<circle cx="329.6" cy="199.58" r="9.6" fill="#43A047" fill-opacity="0.85" stroke="#333333" stroke-width="0.5"/>
<circle cx="329.6" cy="178.18" r="9.6" fill="#43A047" fill-opacity="0.85" stroke="#333333" stroke-width="0.5"/>
<circle cx="329.6" cy="156.78" r="9.6" fill="#43A047" fill-opacity="0.85" stroke="#333333" stroke-width="0.5"/>
<circle cx="329.6" cy="135.38" r="9.6" fill="#43A047" fill-opacity="0.85" stroke="#333333" stroke-width="0.5"/>
<circle cx="329.6" cy="113.97" r="9.6" fill="#43A047" fill-opacity="0.85" stroke="#333333" stroke-width="0.5"/>
<circle cx="329.6" cy="92.57" r="9.6" fill="#43A047" fill-opacity="0.85" stroke="#333333" stroke-width="0.5"/>
<circle cx="329.2" cy="71.2" r="9.6" fill="#E53935" fill-opacity="0.85" stroke="#333333" stroke-width="0.5"/>
<circle cx="306.6" cy="70.4" r="9.6" fill="#43A047" fill-opacity="0.85" stroke="#333333" stroke-width="0.5"/>
<circle cx="285.2" cy="70.4" r="9.6" fill="#43A047" fill-opacity="0.85" stroke="#333333" stroke-width="0.5"/>
<circle cx="263.8" cy="70.4" r="9.6" fill="#43A047" fill-opacity="0.85" stroke="#333333" stroke-width="0.5"/>
<circle cx="242.4" cy="70.4" r="9.6" fill="#43A047" fill-opacity="0.85" stroke="#333333" stroke-width="0.5"/>
<circle cx="221" cy="70.4" r="9.6" fill="#43A047" fill-opacity="0.85" stroke="#333333" stroke-width="0.5"/>
<circle cx="199.6" cy="70.4" r="9.6" fill="#43A047" fill-opacity="0.85" stroke="#333333" stroke-width="0.5"/>
<circle cx="178.2" cy="70.4" r="9.6" fill="#43A047" fill-opacity="0.85" stroke="#333333" stroke-width="0.5"/>
<circle cx="156.8" cy="70.4" r="9.6" fill="#43A047" fill-opacity="0.85" stroke="#333333" stroke-width="0.5"/>
<circle cx="135.4" cy="70.4" r="9.6" fill="#43A047" fill-opacity="0.85" stroke="#333333" stroke-width="0.5"/>
<circle cx="114" cy="70.4" r="9.6" fill="#43A047" fill-opacity="0.85" stroke="#333333" stroke-width="0.5"/>
<circle cx="92.6" cy="70.4" r="9.6" fill="#43A047" fill-opacity="0.85" stroke="#333333" stroke-width="0.5"/>
</svg>
